<svg t="1722530717261" class="icon" viewBox="0 0 1024 1024" version="1.1" xmlns="http://www.w3.org/2000/svg" p-id="5183" width="128" height="128"><path d="M562.4 670.1c-4.1 0-8.1-1.9-10.7-5.5-4.3-5.9-2.9-14.2 3-18.4 42.6-30.8 72.1-108 81.8-144.6 12.7-48.1 11.7-94.9-3-135.4-16-44.3-49.3-79.7-89-94.8-42.5-16.1-91.6-7.7-122.3 21.1C389 323.6 380.4 373.6 379 410c-3.1 82.9 22.4 185.3 86.3 227.1 6.1 4 7.8 12.2 3.8 18.3-4 6.1-12.2 7.8-18.3 3.8-77.6-50.7-101.4-166.4-98.3-250.2 2.2-59.4 20-106.3 51.5-135.8 37.9-35.5 98-46.1 149.7-26.5 46.8 17.8 85.9 59.1 104.5 110.5 16.5 45.6 17.7 97.8 3.6 151.1-11.3 42.6-43.3 124.2-91.9 159.2-2.1 1.8-4.8 2.6-7.5 2.6z" fill="#4bb4eb" p-id="5184"></path><path d="M502.4 460c-3.1 0-6.3-1.1-8.8-3.3l-66.4-59c-5.5-4.8-5.9-13.2-1.1-18.6 4.8-5.5 13.2-6 18.6-1.1l66.4 59c5.5 4.8 5.9 13.2 1.1 18.6-2.5 2.9-6.2 4.4-9.8 4.4zM513.7 497.8c-4.6 0-9.1-2.4-11.6-6.8-3.6-6.4-1.3-14.4 5.1-18 26.1-14.6 51.4-31.2 75.1-49.4 5.8-4.4 14.1-3.4 18.5 2.4 4.5 5.8 3.4 14.1-2.4 18.5-24.7 19-51.1 36.4-78.4 51.6-1.9 1.2-4.1 1.7-6.3 1.7zM505.9 568.3c-2.3 0-4.7-0.6-6.8-1.9-24.8-15-46.9-33.9-65.7-56-4.7-5.6-4-13.9 1.5-18.6 5.5-4.7 13.9-4.1 18.6 1.5 16.9 20 36.9 36.9 59.2 50.5 6.2 3.8 8.2 11.9 4.5 18.1-2.5 4.1-6.8 6.4-11.3 6.4z" fill="#4bb4eb" p-id="5185"></path><path d="M511.9 786.9c-7.2 0-13-5.7-13.2-12.9-1.5-68.3-2.4-138.1-3.2-205.6-0.8-61.5-1.5-122.9-2.7-183.7-0.1-7.3 5.7-13.3 12.9-13.5 7.3 0.2 13.3 5.7 13.5 12.9 1.2 60.8 2 122.3 2.7 183.9 0.8 67.5 1.7 137.3 3.2 205.4 0.2 7.3-5.6 13.3-12.9 13.5h-0.3z" fill="#4bb4eb" p-id="5186"></path><path d="M512 960.7C264.4 960.7 63 759.4 63 512S264.4 63.3 512 63.3 961 264.6 961 512 759.6 960.7 512 960.7z m0-875.5C276.5 85.2 84.9 276.6 84.9 512S276.5 938.8 512 938.8 939.1 747.4 939.1 512 747.5 85.2 512 85.2z" fill="#4bb4eb" p-id="5187"></path></svg>